<svg width="38" height="38" viewBox="0 0 38 38" fill="none" xmlns="http://www.w3.org/2000/svg">
<g filter="url(#filter0_d_20_1169)">
<circle cx="17" cy="17" r="15" fill="white"/>
</g>
<mask id="path-2-inside-1_20_1169" fill="white">
<path fill-rule="evenodd" clip-rule="evenodd" d="M15.4548 10.2532L11.2308 13.5385H8.76929C8.217 13.5385 7.76929 13.9862 7.76929 14.5385V19.4615C7.76929 20.0138 8.217 20.4615 8.76929 20.4615H11.2308L15.4548 23.7468C15.8489 24.0534 16.4231 23.7725 16.4231 23.2732V10.7268C16.4231 10.2275 15.8489 9.94664 15.4548 10.2532Z"/>
</mask>
<path fill-rule="evenodd" clip-rule="evenodd" d="M15.4548 10.2532L11.2308 13.5385H8.76929C8.217 13.5385 7.76929 13.9862 7.76929 14.5385V19.4615C7.76929 20.0138 8.217 20.4615 8.76929 20.4615H11.2308L15.4548 23.7468C15.8489 24.0534 16.4231 23.7725 16.4231 23.2732V10.7268C16.4231 10.2275 15.8489 9.94664 15.4548 10.2532Z" fill="#979797"/>
<path d="M11.2308 13.5385V14.5385H11.5739L11.8448 14.3278L11.2308 13.5385ZM15.4548 10.2532L14.8408 9.46382L14.8408 9.46382L15.4548 10.2532ZM11.2308 20.4615L11.8448 19.6722L11.5739 19.4615H11.2308V20.4615ZM15.4548 23.7468L14.8408 24.5362L14.8408 24.5362L15.4548 23.7468ZM11.8448 14.3278L16.0687 11.0425L14.8408 9.46382L10.6169 12.7491L11.8448 14.3278ZM8.76929 14.5385H11.2308V12.5385H8.76929V14.5385ZM8.76929 14.5385L8.76929 14.5385V12.5385C7.66472 12.5385 6.76929 13.4339 6.76929 14.5385H8.76929ZM8.76929 19.4615V14.5385H6.76929V19.4615H8.76929ZM8.76929 19.4615H8.76929H6.76929C6.76929 20.5661 7.66472 21.4615 8.76929 21.4615V19.4615ZM11.2308 19.4615H8.76929V21.4615H11.2308V19.4615ZM16.0687 22.9575L11.8448 19.6722L10.6169 21.2509L14.8408 24.5362L16.0687 22.9575ZM15.4231 23.2732C15.4231 22.9404 15.806 22.7531 16.0687 22.9575L14.8408 24.5362C15.8918 25.3536 17.4231 24.6047 17.4231 23.2732H15.4231ZM15.4231 10.7268V23.2732H17.4231V10.7268H15.4231ZM16.0687 11.0425C15.806 11.2469 15.4231 11.0596 15.4231 10.7268H17.4231C17.4231 9.39535 15.8918 8.6464 14.8408 9.46382L16.0687 11.0425Z" fill="#979797" mask="url(#path-2-inside-1_20_1169)"/>
<path d="M19.8846 8.92308C23.479 9.47808 25.6539 13.2502 25.6539 17C25.6539 20.7498 23.479 24.5219 19.8846 25.0769" stroke="#979797" stroke-linecap="round"/>
<path d="M20.4615 20.4615C21.7361 20.4615 22.7692 18.9118 22.7692 17C22.7692 15.0882 21.7361 13.5385 20.4615 13.5385" stroke="#979797" stroke-linecap="round"/>
<defs>
<filter id="filter0_d_20_1169" x="0" y="0" width="38" height="38" filterUnits="userSpaceOnUse" color-interpolation-filters="sRGB">
<feFlood flood-opacity="0" result="BackgroundImageFix"/>
<feColorMatrix in="SourceAlpha" type="matrix" values="0 0 0 0 0 0 0 0 0 0 0 0 0 0 0 0 0 0 127 0" result="hardAlpha"/>
<feOffset dx="2" dy="2"/>
<feGaussianBlur stdDeviation="2"/>
<feComposite in2="hardAlpha" operator="out"/>
<feColorMatrix type="matrix" values="0 0 0 0 0.4 0 0 0 0 0.4 0 0 0 0 0.4 0 0 0 0.1 0"/>
<feBlend mode="normal" in2="BackgroundImageFix" result="effect1_dropShadow_20_1169"/>
<feBlend mode="normal" in="SourceGraphic" in2="effect1_dropShadow_20_1169" result="shape"/>
</filter>
</defs>
</svg>
